<?xml version='1.0' encoding='utf-8'?>
<svg xmlns="http://www.w3.org/2000/svg" width="1000" height="1000" viewBox="0 0 264.58333 264.58334" version="1.1" id="svg4680"> <defs id="defs4674"/> <metadata id="metadata4677"> </metadata> <g id="layer1" transform="translate(0,-32.41665)"> <text style="font-style:normal;font-weight:normal;font-size:10.58333302px;line-height:1.25;font-family:sans-serif;letter-spacing:0px;word-spacing:0px;fill:#000000;fill-opacity:1;stroke:none;stroke-width:0.26458332" x="69.320831" y="129.78331" id="text5233"><tspan id="tspan5231" x="69.320831" y="139.43881" style="stroke-width:0.26458332"/></text> <circle style="opacity:1;fill:#39ffd7;fill-opacity:1;stroke:none;stroke-width:2.64583325;stroke-linecap:round;stroke-linejoin:round;stroke-miterlimit:4;stroke-dasharray:none;stroke-dashoffset:0;stroke-opacity:1" id="path5253" cx="141.55208" cy="149.0979" r="89.164581"/> <circle style="opacity:1;fill:#ffd42a;fill-opacity:1;stroke:none;stroke-width:2.64583325;stroke-linecap:round;stroke-linejoin:round;stroke-miterlimit:4;stroke-dasharray:none;stroke-dashoffset:0;stroke-opacity:1" id="path5272" cx="174.88959" cy="129.25415" r="33.072918"/> <path style="opacity:1;fill:#ffffff;fill-opacity:1;stroke:none;stroke-width:2.64583325;stroke-linecap:round;stroke-linejoin:round;stroke-miterlimit:4;stroke-dasharray:none;stroke-dashoffset:0;stroke-opacity:1" d="m 115.35834,96.181234 a 39.6875,39.6875 0 0 0 -39.687491,39.687496 39.6875,39.6875 0 0 0 39.687491,39.6875 h 33.07292 33.07291 0.51108 v -0.0181 a 26.458333,26.458333 0 0 0 25.94726,-26.44024 26.458333,26.458333 0 0 0 -26.45834,-26.45833 26.458333,26.458333 0 0 0 -6.11952,0.74931 33.072916,33.072916 0 0 0 -26.95339,-13.97848 33.072916,33.072916 0 0 0 -3.37292,0.20826 39.6875,39.6875 0 0 0 -29.7,-13.437416 z" id="path5255"/> <g id="g1043"> <path id="path1019" d="m 165.79055,227.99736 c -1.23055,0.0147 -2.45015,-0.0937 -3.64215,-0.31213 -8.34393,-1.52932 -15.33854,-8.52546 -15.32103,-17.55345 0.0158,-8.15344 6.43796,-15.72092 15.05799,-15.55512 6.64793,0.12787 12.82203,5.44641 12.52792,12.55944 -0.22027,5.32732 -4.57476,10.2864 -10.37301,9.87691 a 2.6460976,2.6460976 0 1 1 0.3731,-5.27874 c 2.49861,0.17645 4.60629,-2.22588 4.71341,-4.81676 0.15977,-3.86386 -3.45342,-6.97591 -7.34374,-7.05074 -5.40992,-0.10405 -9.65409,4.89554 -9.66452,10.27431 -0.0138,7.1386 6.55221,12.64898 13.60795,12.56461 9.05104,-0.10823 15.95582,-8.41921 15.74736,-17.34003 -0.2605,-11.14807 -10.49164,-19.58211 -21.46536,-19.22105 a 2.6464223,2.6464223 0 0 1 -0.17311,-0.003 c -0.0754,0.006 -0.15128,0.0114 -0.22841,0.0114 H 98.887148 c -1.465792,0 -2.645833,-1.18004 -2.645833,-2.64583 0,-1.46579 1.180041,-2.64583 2.645833,-2.64583 h 60.719802 c 0.0271,0 0.0532,0.003 0.0801,0.004 a 2.6464223,2.6464223 0 0 1 0.14624,-0.0109 c 13.78366,-0.45353 26.59849,10.10691 26.93221,24.38817 0.27389,11.72101 -8.76994,22.60875 -20.97495,22.75469 z" style="color:#000000;font-style:normal;font-variant:normal;font-weight:normal;font-stretch:normal;font-size:medium;line-height:normal;font-family:sans-serif;font-variant-ligatures:normal;font-variant-position:normal;font-variant-caps:normal;font-variant-numeric:normal;font-variant-alternates:normal;font-feature-settings:normal;text-indent:0;text-align:start;text-decoration:none;text-decoration-line:none;text-decoration-style:solid;text-decoration-color:#000000;letter-spacing:normal;word-spacing:normal;text-transform:none;writing-mode:lr-tb;direction:ltr;text-orientation:mixed;dominant-baseline:auto;baseline-shift:baseline;text-anchor:start;white-space:normal;shape-padding:0;clip-rule:nonzero;display:inline;overflow:visible;visibility:visible;opacity:1;isolation:auto;mix-blend-mode:normal;color-interpolation:sRGB;color-interpolation-filters:linearRGB;solid-color:#000000;solid-opacity:1;vector-effect:none;fill:#b3b3b3;fill-opacity:1;fill-rule:evenodd;stroke:none;stroke-width:5.29166651;stroke-linecap:round;stroke-linejoin:round;stroke-miterlimit:4;stroke-dasharray:none;stroke-dashoffset:0;stroke-opacity:1;color-rendering:auto;image-rendering:auto;shape-rendering:auto;text-rendering:auto;enable-background:accumulate"/> <path style="color:#000000;font-style:normal;font-variant:normal;font-weight:normal;font-stretch:normal;font-size:medium;line-height:normal;font-family:sans-serif;font-variant-ligatures:normal;font-variant-position:normal;font-variant-caps:normal;font-variant-numeric:normal;font-variant-alternates:normal;font-feature-settings:normal;text-indent:0;text-align:start;text-decoration:none;text-decoration-line:none;text-decoration-style:solid;text-decoration-color:#000000;letter-spacing:normal;word-spacing:normal;text-transform:none;writing-mode:lr-tb;direction:ltr;text-orientation:mixed;dominant-baseline:auto;baseline-shift:baseline;text-anchor:start;white-space:normal;shape-padding:0;clip-rule:nonzero;display:inline;overflow:visible;visibility:visible;opacity:1;isolation:auto;mix-blend-mode:normal;color-interpolation:sRGB;color-interpolation-filters:linearRGB;solid-color:#000000;solid-opacity:1;vector-effect:none;fill:#b3b3b3;fill-opacity:1;fill-rule:evenodd;stroke:none;stroke-width:5.29166651;stroke-linecap:round;stroke-linejoin:round;stroke-miterlimit:4;stroke-dasharray:none;stroke-dashoffset:0;stroke-opacity:1;color-rendering:auto;image-rendering:auto;shape-rendering:auto;text-rendering:auto;enable-background:accumulate" d="m 127.70772,220.32728 c -0.72283,0.009 -1.43923,-0.0551 -2.13942,-0.18336 -4.90126,-0.89832 -9.00991,-5.00788 -8.99963,-10.31096 0.009,-4.78936 3.78168,-9.23453 8.84513,-9.13714 3.90501,0.0752 7.5317,3.19924 7.35894,7.37747 -0.12938,3.12928 -2.68723,6.04227 -6.09314,5.80173 a 1.554328,1.554328 0 1 1 0.21916,-3.10075 c 1.46769,0.10365 2.70575,-1.30749 2.76867,-2.82938 0.0939,-2.26965 -2.02855,-4.09768 -4.31374,-4.14164 -3.17781,-0.0611 -5.67085,2.87566 -5.67697,6.03517 -0.008,4.19325 3.84879,7.43006 7.99335,7.38051 5.31662,-0.0636 9.37251,-4.94548 9.25006,-10.18561 -0.15302,-6.54842 -6.16282,-11.5026 -12.60883,-11.29051 a 1.5545188,1.5545188 0 0 1 -0.10168,-0.002 c -0.0443,0.004 -0.0889,0.007 -0.13418,0.007 H 88.408403 c -0.861013,0 -1.554179,-0.69316 -1.554179,-1.55417 0,-0.86101 0.693166,-1.55417 1.554179,-1.55417 h 35.667037 c 0.016,0 0.0313,0.002 0.047,0.003 a 1.5545188,1.5545188 0 0 1 0.0859,-0.006 c 8.09658,-0.26641 15.62406,5.93683 15.82009,14.3257 0.16088,6.88496 -5.1515,13.28047 -12.32077,13.36619 z" id="path1039"/> </g> </g> </svg>