<?xml version='1.0' encoding='utf-8'?>
<svg xmlns="http://www.w3.org/2000/svg" width="1000" height="1000" viewBox="0 0 264.58333 264.58334" version="1.1" id="svg4680"> <defs id="defs4674"/> <metadata id="metadata4677"> </metadata> <g id="layer1" transform="translate(0,-32.41665)"> <text style="font-style:normal;font-weight:normal;font-size:10.58333302px;line-height:1.25;font-family:sans-serif;letter-spacing:0px;word-spacing:0px;fill:#000000;fill-opacity:1;stroke:none;stroke-width:0.26458332" x="69.320831" y="129.78331" id="text5233"><tspan id="tspan5231" x="69.320831" y="139.43881" style="stroke-width:0.26458332"/></text> <circle style="opacity:1;fill:#39ffd7;fill-opacity:1;stroke:none;stroke-width:2.64583325;stroke-linecap:round;stroke-linejoin:round;stroke-miterlimit:4;stroke-dasharray:none;stroke-dashoffset:0;stroke-opacity:1" id="path5253" cx="141.55208" cy="149.0979" r="89.164581"/> <path style="opacity:1;fill:#ffffff;fill-opacity:1;stroke:none;stroke-width:2.64583325;stroke-linecap:round;stroke-linejoin:round;stroke-miterlimit:4;stroke-dasharray:none;stroke-dashoffset:0;stroke-opacity:1" d="m 115.09374,109.4104 a 39.6875,39.6875 0 0 0 -39.687493,39.6875 39.6875,39.6875 0 0 0 39.687493,39.6875 h 33.07292 33.07291 0.51108 v -0.0181 a 26.458333,26.458333 0 0 0 25.94726,-26.44024 26.458333,26.458333 0 0 0 -26.45834,-26.45833 26.458333,26.458333 0 0 0 -6.11952,0.74931 33.072916,33.072916 0 0 0 -26.95339,-13.97848 33.072916,33.072916 0 0 0 -3.37292,0.20826 39.6875,39.6875 0 0 0 -29.7,-13.43742 z" id="path5255"/> </g> </svg>